<mxfile host="65bd71144e">
    <diagram id="rZfGJCjG9sosRQqXCiFF" name="第 1 页">
        <mxGraphModel dx="2213" dy="825" grid="1" gridSize="10" guides="1" tooltips="1" connect="1" arrows="1" fold="1" page="1" pageScale="1" pageWidth="827" pageHeight="1169" math="0" shadow="0">
            <root>
                <mxCell id="0"/>
                <mxCell id="1" parent="0"/>
                <mxCell id="16" style="edgeStyle=none;html=1;entryX=0.5;entryY=0;entryDx=0;entryDy=0;fontSize=18;strokeWidth=2;endArrow=none;endFill=0;sourcePerimeterSpacing=6;targetPerimeterSpacing=6;jumpSize=2;jumpStyle=none;rounded=0;endSize=1;strokeColor=default;startSize=0;exitX=0.5;exitY=1;exitDx=0;exitDy=0;" edge="1" parent="1" source="11" target="13">
                    <mxGeometry relative="1" as="geometry">
                        <Array as="points"/>
                    </mxGeometry>
                </mxCell>
                <mxCell id="11" value="基于JS的招聘平台设计和实现" style="rounded=1;whiteSpace=wrap;html=1;fontSize=18;" vertex="1" parent="1">
                    <mxGeometry x="510" y="160" width="360" height="60" as="geometry"/>
                </mxCell>
                <mxCell id="17" style="edgeStyle=none;shape=connector;rounded=0;jumpStyle=none;jumpSize=2;html=1;entryX=0.5;entryY=0;entryDx=0;entryDy=0;labelBackgroundColor=default;strokeColor=default;strokeWidth=2;fontFamily=Helvetica;fontSize=18;fontColor=default;endArrow=none;endFill=0;startSize=0;endSize=1;sourcePerimeterSpacing=6;targetPerimeterSpacing=6;exitX=0.5;exitY=0;exitDx=0;exitDy=0;" edge="1" parent="1" source="12" target="14">
                    <mxGeometry relative="1" as="geometry">
                        <Array as="points">
                            <mxPoint x="30" y="280"/>
                            <mxPoint x="1260" y="280"/>
                        </Array>
                    </mxGeometry>
                </mxCell>
                <mxCell id="55" style="edgeStyle=none;shape=connector;rounded=0;jumpStyle=none;jumpSize=2;html=1;labelBackgroundColor=default;strokeColor=default;strokeWidth=2;fontFamily=Helvetica;fontSize=18;fontColor=default;endArrow=none;endFill=0;startSize=0;endSize=1;sourcePerimeterSpacing=6;targetPerimeterSpacing=6;" edge="1" parent="1" source="12">
                    <mxGeometry relative="1" as="geometry">
                        <mxPoint x="30" y="420" as="targetPoint"/>
                    </mxGeometry>
                </mxCell>
                <mxCell id="12" value="应聘人员" style="rounded=1;whiteSpace=wrap;html=1;fontSize=18;" vertex="1" parent="1">
                    <mxGeometry x="-30" y="330" width="120" height="40" as="geometry"/>
                </mxCell>
                <mxCell id="141" style="edgeStyle=none;shape=connector;rounded=0;jumpStyle=none;jumpSize=2;html=1;labelBackgroundColor=default;strokeColor=default;strokeWidth=2;fontFamily=Helvetica;fontSize=18;fontColor=default;endArrow=none;endFill=0;startSize=0;endSize=1;sourcePerimeterSpacing=6;targetPerimeterSpacing=6;" edge="1" parent="1" source="13">
                    <mxGeometry relative="1" as="geometry">
                        <mxPoint x="690" y="420" as="targetPoint"/>
                    </mxGeometry>
                </mxCell>
                <mxCell id="13" value="招聘人员" style="rounded=1;whiteSpace=wrap;html=1;fontSize=18;" vertex="1" parent="1">
                    <mxGeometry x="630" y="320" width="120" height="40" as="geometry"/>
                </mxCell>
                <mxCell id="142" style="edgeStyle=none;shape=connector;rounded=0;jumpStyle=none;jumpSize=2;html=1;labelBackgroundColor=default;strokeColor=default;strokeWidth=2;fontFamily=Helvetica;fontSize=18;fontColor=default;endArrow=none;endFill=0;startSize=0;endSize=1;sourcePerimeterSpacing=6;targetPerimeterSpacing=6;" edge="1" parent="1" source="14">
                    <mxGeometry relative="1" as="geometry">
                        <mxPoint x="1260" y="420" as="targetPoint"/>
                    </mxGeometry>
                </mxCell>
                <mxCell id="14" value="管理人员" style="rounded=1;whiteSpace=wrap;html=1;fontSize=18;" vertex="1" parent="1">
                    <mxGeometry x="1200" y="320" width="120" height="40" as="geometry"/>
                </mxCell>
                <mxCell id="15" value="运维人员" style="rounded=1;whiteSpace=wrap;html=1;fontSize=18;arcSize=17;" vertex="1" parent="1">
                    <mxGeometry x="1090" y="170" width="110" height="40" as="geometry"/>
                </mxCell>
                <mxCell id="24" style="edgeStyle=none;shape=connector;rounded=0;jumpStyle=none;jumpSize=2;html=1;labelBackgroundColor=default;strokeColor=default;strokeWidth=2;fontFamily=Helvetica;fontSize=18;fontColor=default;endArrow=none;endFill=0;startSize=0;endSize=1;sourcePerimeterSpacing=6;targetPerimeterSpacing=6;entryX=0.5;entryY=0;entryDx=0;entryDy=0;" edge="1" parent="1" source="18" target="22">
                    <mxGeometry relative="1" as="geometry"/>
                </mxCell>
                <mxCell id="63" style="edgeStyle=none;shape=connector;rounded=0;jumpStyle=none;jumpSize=2;html=1;labelBackgroundColor=default;strokeColor=default;strokeWidth=2;fontFamily=Helvetica;fontSize=18;fontColor=default;endArrow=none;endFill=0;startSize=0;endSize=1;sourcePerimeterSpacing=6;targetPerimeterSpacing=6;" edge="1" parent="1" source="18">
                    <mxGeometry relative="1" as="geometry">
                        <mxPoint x="255" y="420" as="targetPoint"/>
                    </mxGeometry>
                </mxCell>
                <mxCell id="18" value="职业列表" style="rounded=1;whiteSpace=wrap;html=1;fontFamily=Helvetica;fontSize=18;fontColor=default;horizontal=1;verticalAlign=middle;align=center;" vertex="1" parent="1">
                    <mxGeometry x="240" y="450" width="30" height="160" as="geometry"/>
                </mxCell>
                <mxCell id="51" style="edgeStyle=none;shape=connector;rounded=0;jumpStyle=none;jumpSize=2;html=1;entryX=0.5;entryY=0;entryDx=0;entryDy=0;labelBackgroundColor=default;strokeColor=default;strokeWidth=2;fontFamily=Helvetica;fontSize=18;fontColor=default;endArrow=none;endFill=0;startSize=0;endSize=1;sourcePerimeterSpacing=6;targetPerimeterSpacing=6;" edge="1" parent="1" source="21" target="50">
                    <mxGeometry relative="1" as="geometry"/>
                </mxCell>
                <mxCell id="21" value="职业推荐" style="rounded=1;whiteSpace=wrap;html=1;fontFamily=Helvetica;fontSize=18;fontColor=default;horizontal=1;verticalAlign=middle;align=center;" vertex="1" parent="1">
                    <mxGeometry x="300" y="450" width="30" height="160" as="geometry"/>
                </mxCell>
                <mxCell id="22" value="查看职业" style="rounded=1;whiteSpace=wrap;html=1;fontFamily=Helvetica;fontSize=18;fontColor=default;horizontal=1;verticalAlign=middle;align=center;" vertex="1" parent="1">
                    <mxGeometry x="240" y="680" width="30" height="160" as="geometry"/>
                </mxCell>
                <mxCell id="27" style="edgeStyle=none;shape=connector;rounded=0;jumpStyle=none;jumpSize=2;html=1;entryX=0.5;entryY=0;entryDx=0;entryDy=0;labelBackgroundColor=default;strokeColor=default;strokeWidth=2;fontFamily=Helvetica;fontSize=18;fontColor=default;endArrow=none;endFill=0;startSize=0;endSize=1;sourcePerimeterSpacing=6;targetPerimeterSpacing=6;" edge="1" parent="1" source="25" target="26">
                    <mxGeometry relative="1" as="geometry"/>
                </mxCell>
                <mxCell id="62" style="edgeStyle=none;shape=connector;rounded=0;jumpStyle=none;jumpSize=2;html=1;labelBackgroundColor=default;strokeColor=default;strokeWidth=2;fontFamily=Helvetica;fontSize=18;fontColor=default;endArrow=none;endFill=0;startSize=0;endSize=1;sourcePerimeterSpacing=6;targetPerimeterSpacing=6;" edge="1" parent="1" source="25">
                    <mxGeometry relative="1" as="geometry">
                        <mxPoint x="195" y="420" as="targetPoint"/>
                    </mxGeometry>
                </mxCell>
                <mxCell id="25" value="职业搜索" style="rounded=1;whiteSpace=wrap;html=1;fontFamily=Helvetica;fontSize=18;fontColor=default;horizontal=1;verticalAlign=middle;align=center;" vertex="1" parent="1">
                    <mxGeometry x="180" y="450" width="30" height="160" as="geometry"/>
                </mxCell>
                <mxCell id="26" value="筛选和检索" style="rounded=1;whiteSpace=wrap;html=1;fontFamily=Helvetica;fontSize=18;fontColor=default;horizontal=1;verticalAlign=middle;align=center;" vertex="1" parent="1">
                    <mxGeometry x="180" y="680" width="30" height="160" as="geometry"/>
                </mxCell>
                <mxCell id="30" style="edgeStyle=none;shape=connector;rounded=0;jumpStyle=none;jumpSize=2;html=1;entryX=0.5;entryY=0;entryDx=0;entryDy=0;labelBackgroundColor=default;strokeColor=default;strokeWidth=2;fontFamily=Helvetica;fontSize=18;fontColor=default;endArrow=none;endFill=0;startSize=0;endSize=1;sourcePerimeterSpacing=6;targetPerimeterSpacing=6;" edge="1" parent="1" source="28" target="29">
                    <mxGeometry relative="1" as="geometry"/>
                </mxCell>
                <mxCell id="61" style="edgeStyle=none;shape=connector;rounded=0;jumpStyle=none;jumpSize=2;html=1;labelBackgroundColor=default;strokeColor=default;strokeWidth=2;fontFamily=Helvetica;fontSize=18;fontColor=default;endArrow=none;endFill=0;startSize=0;endSize=1;sourcePerimeterSpacing=6;targetPerimeterSpacing=6;" edge="1" parent="1" source="28">
                    <mxGeometry relative="1" as="geometry">
                        <mxPoint x="135" y="420" as="targetPoint"/>
                    </mxGeometry>
                </mxCell>
                <mxCell id="28" value="求职管理" style="rounded=1;whiteSpace=wrap;html=1;fontFamily=Helvetica;fontSize=18;fontColor=default;horizontal=1;verticalAlign=middle;align=center;" vertex="1" parent="1">
                    <mxGeometry x="120" y="450" width="30" height="160" as="geometry"/>
                </mxCell>
                <mxCell id="29" value="已申请岗位" style="rounded=1;whiteSpace=wrap;html=1;fontFamily=Helvetica;fontSize=18;fontColor=default;horizontal=1;verticalAlign=middle;align=center;" vertex="1" parent="1">
                    <mxGeometry x="120" y="680" width="30" height="160" as="geometry"/>
                </mxCell>
                <mxCell id="33" style="edgeStyle=none;shape=connector;rounded=0;jumpStyle=none;jumpSize=2;html=1;labelBackgroundColor=default;strokeColor=default;strokeWidth=2;fontFamily=Helvetica;fontSize=18;fontColor=default;endArrow=none;endFill=0;startSize=0;endSize=1;sourcePerimeterSpacing=6;targetPerimeterSpacing=6;" edge="1" parent="1" source="32">
                    <mxGeometry relative="1" as="geometry">
                        <mxPoint x="80" y="680" as="targetPoint"/>
                    </mxGeometry>
                </mxCell>
                <mxCell id="60" style="edgeStyle=none;shape=connector;rounded=0;jumpStyle=none;jumpSize=2;html=1;labelBackgroundColor=default;strokeColor=default;strokeWidth=2;fontFamily=Helvetica;fontSize=18;fontColor=default;endArrow=none;endFill=0;startSize=0;endSize=1;sourcePerimeterSpacing=6;targetPerimeterSpacing=6;" edge="1" parent="1" source="32">
                    <mxGeometry relative="1" as="geometry">
                        <mxPoint x="80" y="420" as="targetPoint"/>
                    </mxGeometry>
                </mxCell>
                <mxCell id="32" value="信息管理" style="rounded=1;whiteSpace=wrap;html=1;fontFamily=Helvetica;fontSize=18;fontColor=default;horizontal=1;verticalAlign=middle;align=center;" vertex="1" parent="1">
                    <mxGeometry x="65" y="450" width="30" height="160" as="geometry"/>
                </mxCell>
                <mxCell id="34" value="修改个人信息" style="rounded=1;whiteSpace=wrap;html=1;fontFamily=Helvetica;fontSize=18;fontColor=default;horizontal=1;verticalAlign=middle;align=center;" vertex="1" parent="1">
                    <mxGeometry x="65" y="680" width="30" height="160" as="geometry"/>
                </mxCell>
                <mxCell id="37" style="edgeStyle=none;shape=connector;rounded=0;jumpStyle=none;jumpSize=2;html=1;entryX=0.5;entryY=0;entryDx=0;entryDy=0;labelBackgroundColor=default;strokeColor=default;strokeWidth=2;fontFamily=Helvetica;fontSize=18;fontColor=default;endArrow=none;endFill=0;startSize=0;endSize=1;sourcePerimeterSpacing=6;targetPerimeterSpacing=6;" edge="1" parent="1" source="35" target="36">
                    <mxGeometry relative="1" as="geometry"/>
                </mxCell>
                <mxCell id="59" style="edgeStyle=none;shape=connector;rounded=0;jumpStyle=none;jumpSize=2;html=1;labelBackgroundColor=default;strokeColor=default;strokeWidth=2;fontFamily=Helvetica;fontSize=18;fontColor=default;endArrow=none;endFill=0;startSize=0;endSize=1;sourcePerimeterSpacing=6;targetPerimeterSpacing=6;" edge="1" parent="1" source="35">
                    <mxGeometry relative="1" as="geometry">
                        <mxPoint x="15" y="420" as="targetPoint"/>
                    </mxGeometry>
                </mxCell>
                <mxCell id="35" value="聊天管理" style="rounded=1;whiteSpace=wrap;html=1;fontFamily=Helvetica;fontSize=18;fontColor=default;horizontal=1;verticalAlign=middle;align=center;" vertex="1" parent="1">
                    <mxGeometry y="450" width="30" height="160" as="geometry"/>
                </mxCell>
                <mxCell id="36" value="实时聊天" style="rounded=1;whiteSpace=wrap;html=1;fontFamily=Helvetica;fontSize=18;fontColor=default;horizontal=1;verticalAlign=middle;align=center;" vertex="1" parent="1">
                    <mxGeometry y="680" width="30" height="160" as="geometry"/>
                </mxCell>
                <mxCell id="40" style="edgeStyle=none;shape=connector;rounded=0;jumpStyle=none;jumpSize=2;html=1;entryX=0.5;entryY=0;entryDx=0;entryDy=0;labelBackgroundColor=default;strokeColor=default;strokeWidth=2;fontFamily=Helvetica;fontSize=18;fontColor=default;endArrow=none;endFill=0;startSize=0;endSize=1;sourcePerimeterSpacing=6;targetPerimeterSpacing=6;" edge="1" parent="1" source="38" target="39">
                    <mxGeometry relative="1" as="geometry"/>
                </mxCell>
                <mxCell id="58" style="edgeStyle=none;shape=connector;rounded=0;jumpStyle=none;jumpSize=2;html=1;labelBackgroundColor=default;strokeColor=default;strokeWidth=2;fontFamily=Helvetica;fontSize=18;fontColor=default;endArrow=none;endFill=0;startSize=0;endSize=1;sourcePerimeterSpacing=6;targetPerimeterSpacing=6;" edge="1" parent="1" source="38">
                    <mxGeometry relative="1" as="geometry">
                        <mxPoint x="-45" y="420" as="targetPoint"/>
                    </mxGeometry>
                </mxCell>
                <mxCell id="38" value="聊天记录" style="rounded=1;whiteSpace=wrap;html=1;fontFamily=Helvetica;fontSize=18;fontColor=default;horizontal=1;verticalAlign=middle;align=center;" vertex="1" parent="1">
                    <mxGeometry x="-60" y="450" width="30" height="160" as="geometry"/>
                </mxCell>
                <mxCell id="39" value="未读通知" style="rounded=1;whiteSpace=wrap;html=1;fontFamily=Helvetica;fontSize=18;fontColor=default;horizontal=1;verticalAlign=middle;align=center;" vertex="1" parent="1">
                    <mxGeometry x="-60" y="680" width="30" height="160" as="geometry"/>
                </mxCell>
                <mxCell id="43" style="edgeStyle=none;shape=connector;rounded=0;jumpStyle=none;jumpSize=2;html=1;labelBackgroundColor=default;strokeColor=default;strokeWidth=2;fontFamily=Helvetica;fontSize=18;fontColor=default;endArrow=none;endFill=0;startSize=0;endSize=1;sourcePerimeterSpacing=6;targetPerimeterSpacing=6;" edge="1" parent="1" source="41" target="42">
                    <mxGeometry relative="1" as="geometry"/>
                </mxCell>
                <mxCell id="57" style="edgeStyle=none;shape=connector;rounded=0;jumpStyle=none;jumpSize=2;html=1;labelBackgroundColor=default;strokeColor=default;strokeWidth=2;fontFamily=Helvetica;fontSize=18;fontColor=default;endArrow=none;endFill=0;startSize=0;endSize=1;sourcePerimeterSpacing=6;targetPerimeterSpacing=6;" edge="1" parent="1" source="41">
                    <mxGeometry relative="1" as="geometry">
                        <mxPoint x="-115" y="420" as="targetPoint"/>
                    </mxGeometry>
                </mxCell>
                <mxCell id="41" value="简历管理" style="rounded=1;whiteSpace=wrap;html=1;fontFamily=Helvetica;fontSize=18;fontColor=default;horizontal=1;verticalAlign=middle;align=center;" vertex="1" parent="1">
                    <mxGeometry x="-130" y="450" width="30" height="160" as="geometry"/>
                </mxCell>
                <mxCell id="42" value="上传下载简历" style="rounded=1;whiteSpace=wrap;html=1;fontFamily=Helvetica;fontSize=18;fontColor=default;horizontal=1;verticalAlign=middle;align=center;" vertex="1" parent="1">
                    <mxGeometry x="-130" y="680" width="30" height="160" as="geometry"/>
                </mxCell>
                <mxCell id="53" style="edgeStyle=none;shape=connector;rounded=0;jumpStyle=none;jumpSize=2;html=1;entryX=0.5;entryY=0;entryDx=0;entryDy=0;labelBackgroundColor=default;strokeColor=default;strokeWidth=2;fontFamily=Helvetica;fontSize=18;fontColor=default;endArrow=none;endFill=0;startSize=0;endSize=1;sourcePerimeterSpacing=6;targetPerimeterSpacing=6;" edge="1" parent="1" source="44" target="52">
                    <mxGeometry relative="1" as="geometry"/>
                </mxCell>
                <mxCell id="54" style="edgeStyle=none;shape=connector;rounded=0;jumpStyle=none;jumpSize=2;html=1;entryX=0.5;entryY=0;entryDx=0;entryDy=0;labelBackgroundColor=default;strokeColor=default;strokeWidth=2;fontFamily=Helvetica;fontSize=18;fontColor=default;endArrow=none;endFill=0;startSize=0;endSize=1;sourcePerimeterSpacing=6;targetPerimeterSpacing=6;" edge="1" parent="1" source="44" target="21">
                    <mxGeometry relative="1" as="geometry">
                        <Array as="points">
                            <mxPoint x="-245" y="420"/>
                            <mxPoint x="315" y="420"/>
                        </Array>
                    </mxGeometry>
                </mxCell>
                <mxCell id="44" value="权限申请" style="rounded=1;whiteSpace=wrap;html=1;fontFamily=Helvetica;fontSize=18;fontColor=default;horizontal=1;verticalAlign=middle;align=center;" vertex="1" parent="1">
                    <mxGeometry x="-260" y="450" width="30" height="160" as="geometry"/>
                </mxCell>
                <mxCell id="49" style="edgeStyle=none;shape=connector;rounded=0;jumpStyle=none;jumpSize=2;html=1;labelBackgroundColor=default;strokeColor=default;strokeWidth=2;fontFamily=Helvetica;fontSize=18;fontColor=default;endArrow=none;endFill=0;startSize=0;endSize=1;sourcePerimeterSpacing=6;targetPerimeterSpacing=6;entryX=0.5;entryY=0;entryDx=0;entryDy=0;" edge="1" parent="1" source="47" target="48">
                    <mxGeometry relative="1" as="geometry"/>
                </mxCell>
                <mxCell id="56" style="edgeStyle=none;shape=connector;rounded=0;jumpStyle=none;jumpSize=2;html=1;labelBackgroundColor=default;strokeColor=default;strokeWidth=2;fontFamily=Helvetica;fontSize=18;fontColor=default;endArrow=none;endFill=0;startSize=0;endSize=1;sourcePerimeterSpacing=6;targetPerimeterSpacing=6;" edge="1" parent="1" source="47">
                    <mxGeometry relative="1" as="geometry">
                        <mxPoint x="-185" y="420" as="targetPoint"/>
                    </mxGeometry>
                </mxCell>
                <mxCell id="47" value="联系客服" style="rounded=1;whiteSpace=wrap;html=1;fontFamily=Helvetica;fontSize=18;fontColor=default;horizontal=1;verticalAlign=middle;align=center;" vertex="1" parent="1">
                    <mxGeometry x="-200" y="450" width="30" height="160" as="geometry"/>
                </mxCell>
                <mxCell id="48" value="反馈和帮助" style="rounded=1;whiteSpace=wrap;html=1;fontFamily=Helvetica;fontSize=18;fontColor=default;horizontal=1;verticalAlign=middle;align=center;" vertex="1" parent="1">
                    <mxGeometry x="-200" y="680" width="30" height="160" as="geometry"/>
                </mxCell>
                <mxCell id="50" value="定位城市" style="rounded=1;whiteSpace=wrap;html=1;fontFamily=Helvetica;fontSize=18;fontColor=default;horizontal=1;verticalAlign=middle;align=center;" vertex="1" parent="1">
                    <mxGeometry x="300" y="680" width="30" height="160" as="geometry"/>
                </mxCell>
                <mxCell id="52" value="成为招聘人员" style="rounded=1;whiteSpace=wrap;html=1;fontFamily=Helvetica;fontSize=18;fontColor=default;horizontal=1;verticalAlign=middle;align=center;" vertex="1" parent="1">
                    <mxGeometry x="-260" y="680" width="30" height="160" as="geometry"/>
                </mxCell>
                <mxCell id="68" value="职业推荐" style="rounded=1;whiteSpace=wrap;html=1;fontFamily=Helvetica;fontSize=18;fontColor=default;horizontal=1;verticalAlign=middle;align=center;" vertex="1" parent="1">
                    <mxGeometry x="930" y="450" width="30" height="160" as="geometry"/>
                </mxCell>
                <mxCell id="71" style="edgeStyle=none;shape=connector;rounded=0;jumpStyle=none;jumpSize=2;html=1;labelBackgroundColor=default;strokeColor=default;strokeWidth=2;fontFamily=Helvetica;fontSize=18;fontColor=default;endArrow=none;endFill=0;startSize=0;endSize=1;sourcePerimeterSpacing=6;targetPerimeterSpacing=6;" edge="1" parent="1" source="72">
                    <mxGeometry relative="1" as="geometry">
                        <mxPoint x="875" y="420" as="targetPoint"/>
                    </mxGeometry>
                </mxCell>
                <mxCell id="72" value="应聘人员管理" style="rounded=1;whiteSpace=wrap;html=1;fontFamily=Helvetica;fontSize=18;fontColor=default;horizontal=1;verticalAlign=middle;align=center;" vertex="1" parent="1">
                    <mxGeometry x="860" y="450" width="30" height="160" as="geometry"/>
                </mxCell>
                <mxCell id="74" style="edgeStyle=none;shape=connector;rounded=0;jumpStyle=none;jumpSize=2;html=1;entryX=0.5;entryY=0;entryDx=0;entryDy=0;labelBackgroundColor=default;strokeColor=default;strokeWidth=2;fontFamily=Helvetica;fontSize=18;fontColor=default;endArrow=none;endFill=0;startSize=0;endSize=1;sourcePerimeterSpacing=6;targetPerimeterSpacing=6;" edge="1" parent="1" source="76" target="77">
                    <mxGeometry relative="1" as="geometry"/>
                </mxCell>
                <mxCell id="75" style="edgeStyle=none;shape=connector;rounded=0;jumpStyle=none;jumpSize=2;html=1;labelBackgroundColor=default;strokeColor=default;strokeWidth=2;fontFamily=Helvetica;fontSize=18;fontColor=default;endArrow=none;endFill=0;startSize=0;endSize=1;sourcePerimeterSpacing=6;targetPerimeterSpacing=6;" edge="1" parent="1" source="76">
                    <mxGeometry relative="1" as="geometry">
                        <mxPoint x="815" y="420" as="targetPoint"/>
                    </mxGeometry>
                </mxCell>
                <mxCell id="76" value="招聘管理" style="rounded=1;whiteSpace=wrap;html=1;fontFamily=Helvetica;fontSize=18;fontColor=default;horizontal=1;verticalAlign=middle;align=center;" vertex="1" parent="1">
                    <mxGeometry x="800" y="450" width="30" height="160" as="geometry"/>
                </mxCell>
                <mxCell id="77" value="新增招聘" style="rounded=1;whiteSpace=wrap;html=1;fontFamily=Helvetica;fontSize=18;fontColor=default;horizontal=1;verticalAlign=middle;align=center;" vertex="1" parent="1">
                    <mxGeometry x="800" y="680" width="30" height="160" as="geometry"/>
                </mxCell>
                <mxCell id="78" style="edgeStyle=none;shape=connector;rounded=0;jumpStyle=none;jumpSize=2;html=1;labelBackgroundColor=default;strokeColor=default;strokeWidth=2;fontFamily=Helvetica;fontSize=18;fontColor=default;endArrow=none;endFill=0;startSize=0;endSize=1;sourcePerimeterSpacing=6;targetPerimeterSpacing=6;" edge="1" parent="1" source="80">
                    <mxGeometry relative="1" as="geometry">
                        <mxPoint x="760" y="680" as="targetPoint"/>
                    </mxGeometry>
                </mxCell>
                <mxCell id="79" style="edgeStyle=none;shape=connector;rounded=0;jumpStyle=none;jumpSize=2;html=1;labelBackgroundColor=default;strokeColor=default;strokeWidth=2;fontFamily=Helvetica;fontSize=18;fontColor=default;endArrow=none;endFill=0;startSize=0;endSize=1;sourcePerimeterSpacing=6;targetPerimeterSpacing=6;" edge="1" parent="1" source="80">
                    <mxGeometry relative="1" as="geometry">
                        <mxPoint x="760" y="420" as="targetPoint"/>
                    </mxGeometry>
                </mxCell>
                <mxCell id="80" value="招聘&lt;br&gt;信息管理" style="rounded=1;whiteSpace=wrap;html=1;fontFamily=Helvetica;fontSize=18;fontColor=default;horizontal=1;verticalAlign=middle;align=center;" vertex="1" parent="1">
                    <mxGeometry x="745" y="450" width="30" height="160" as="geometry"/>
                </mxCell>
                <mxCell id="81" value="获取应聘人员" style="rounded=1;whiteSpace=wrap;html=1;fontFamily=Helvetica;fontSize=18;fontColor=default;horizontal=1;verticalAlign=middle;align=center;" vertex="1" parent="1">
                    <mxGeometry x="745" y="680" width="30" height="160" as="geometry"/>
                </mxCell>
                <mxCell id="82" style="edgeStyle=none;shape=connector;rounded=0;jumpStyle=none;jumpSize=2;html=1;entryX=0.5;entryY=0;entryDx=0;entryDy=0;labelBackgroundColor=default;strokeColor=default;strokeWidth=2;fontFamily=Helvetica;fontSize=18;fontColor=default;endArrow=none;endFill=0;startSize=0;endSize=1;sourcePerimeterSpacing=6;targetPerimeterSpacing=6;" edge="1" parent="1" source="84" target="85">
                    <mxGeometry relative="1" as="geometry"/>
                </mxCell>
                <mxCell id="83" style="edgeStyle=none;shape=connector;rounded=0;jumpStyle=none;jumpSize=2;html=1;labelBackgroundColor=default;strokeColor=default;strokeWidth=2;fontFamily=Helvetica;fontSize=18;fontColor=default;endArrow=none;endFill=0;startSize=0;endSize=1;sourcePerimeterSpacing=6;targetPerimeterSpacing=6;" edge="1" parent="1" source="84">
                    <mxGeometry relative="1" as="geometry">
                        <mxPoint x="695" y="420" as="targetPoint"/>
                    </mxGeometry>
                </mxCell>
                <mxCell id="84" value="聊天管理" style="rounded=1;whiteSpace=wrap;html=1;fontFamily=Helvetica;fontSize=18;fontColor=default;horizontal=1;verticalAlign=middle;align=center;" vertex="1" parent="1">
                    <mxGeometry x="680" y="450" width="30" height="160" as="geometry"/>
                </mxCell>
                <mxCell id="85" value="实时聊天" style="rounded=1;whiteSpace=wrap;html=1;fontFamily=Helvetica;fontSize=18;fontColor=default;horizontal=1;verticalAlign=middle;align=center;" vertex="1" parent="1">
                    <mxGeometry x="680" y="680" width="30" height="160" as="geometry"/>
                </mxCell>
                <mxCell id="86" style="edgeStyle=none;shape=connector;rounded=0;jumpStyle=none;jumpSize=2;html=1;entryX=0.5;entryY=0;entryDx=0;entryDy=0;labelBackgroundColor=default;strokeColor=default;strokeWidth=2;fontFamily=Helvetica;fontSize=18;fontColor=default;endArrow=none;endFill=0;startSize=0;endSize=1;sourcePerimeterSpacing=6;targetPerimeterSpacing=6;" edge="1" parent="1" source="88" target="89">
                    <mxGeometry relative="1" as="geometry"/>
                </mxCell>
                <mxCell id="87" style="edgeStyle=none;shape=connector;rounded=0;jumpStyle=none;jumpSize=2;html=1;labelBackgroundColor=default;strokeColor=default;strokeWidth=2;fontFamily=Helvetica;fontSize=18;fontColor=default;endArrow=none;endFill=0;startSize=0;endSize=1;sourcePerimeterSpacing=6;targetPerimeterSpacing=6;" edge="1" parent="1" source="88">
                    <mxGeometry relative="1" as="geometry">
                        <mxPoint x="635" y="420" as="targetPoint"/>
                    </mxGeometry>
                </mxCell>
                <mxCell id="88" value="聊天记录" style="rounded=1;whiteSpace=wrap;html=1;fontFamily=Helvetica;fontSize=18;fontColor=default;horizontal=1;verticalAlign=middle;align=center;" vertex="1" parent="1">
                    <mxGeometry x="620" y="450" width="30" height="160" as="geometry"/>
                </mxCell>
                <mxCell id="89" value="未读通知" style="rounded=1;whiteSpace=wrap;html=1;fontFamily=Helvetica;fontSize=18;fontColor=default;horizontal=1;verticalAlign=middle;align=center;" vertex="1" parent="1">
                    <mxGeometry x="620" y="680" width="30" height="160" as="geometry"/>
                </mxCell>
                <mxCell id="90" style="edgeStyle=none;shape=connector;rounded=0;jumpStyle=none;jumpSize=2;html=1;labelBackgroundColor=default;strokeColor=default;strokeWidth=2;fontFamily=Helvetica;fontSize=18;fontColor=default;endArrow=none;endFill=0;startSize=0;endSize=1;sourcePerimeterSpacing=6;targetPerimeterSpacing=6;" edge="1" parent="1" source="92" target="93">
                    <mxGeometry relative="1" as="geometry"/>
                </mxCell>
                <mxCell id="91" style="edgeStyle=none;shape=connector;rounded=0;jumpStyle=none;jumpSize=2;html=1;labelBackgroundColor=default;strokeColor=default;strokeWidth=2;fontFamily=Helvetica;fontSize=18;fontColor=default;endArrow=none;endFill=0;startSize=0;endSize=1;sourcePerimeterSpacing=6;targetPerimeterSpacing=6;" edge="1" parent="1" source="92">
                    <mxGeometry relative="1" as="geometry">
                        <mxPoint x="565" y="420" as="targetPoint"/>
                    </mxGeometry>
                </mxCell>
                <mxCell id="92" value="简历查看" style="rounded=1;whiteSpace=wrap;html=1;fontFamily=Helvetica;fontSize=18;fontColor=default;horizontal=1;verticalAlign=middle;align=center;" vertex="1" parent="1">
                    <mxGeometry x="550" y="450" width="30" height="160" as="geometry"/>
                </mxCell>
                <mxCell id="93" value="下载应聘者简历" style="rounded=1;whiteSpace=wrap;html=1;fontFamily=Helvetica;fontSize=18;fontColor=default;horizontal=1;verticalAlign=middle;align=center;" vertex="1" parent="1">
                    <mxGeometry x="550" y="680" width="30" height="160" as="geometry"/>
                </mxCell>
                <mxCell id="94" style="edgeStyle=none;shape=connector;rounded=0;jumpStyle=none;jumpSize=2;html=1;entryX=0.5;entryY=0;entryDx=0;entryDy=0;labelBackgroundColor=default;strokeColor=default;strokeWidth=2;fontFamily=Helvetica;fontSize=18;fontColor=default;endArrow=none;endFill=0;startSize=0;endSize=1;sourcePerimeterSpacing=6;targetPerimeterSpacing=6;" edge="1" parent="1" source="96" target="102">
                    <mxGeometry relative="1" as="geometry"/>
                </mxCell>
                <mxCell id="95" style="edgeStyle=none;shape=connector;rounded=0;jumpStyle=none;jumpSize=2;html=1;entryX=0.5;entryY=0;entryDx=0;entryDy=0;labelBackgroundColor=default;strokeColor=default;strokeWidth=2;fontFamily=Helvetica;fontSize=18;fontColor=default;endArrow=none;endFill=0;startSize=0;endSize=1;sourcePerimeterSpacing=6;targetPerimeterSpacing=6;" edge="1" parent="1" source="96" target="68">
                    <mxGeometry relative="1" as="geometry">
                        <Array as="points">
                            <mxPoint x="420" y="420"/>
                            <mxPoint x="930" y="420"/>
                            <mxPoint x="945" y="420"/>
                        </Array>
                    </mxGeometry>
                </mxCell>
                <mxCell id="96" value="权限申请" style="rounded=1;whiteSpace=wrap;html=1;fontFamily=Helvetica;fontSize=18;fontColor=default;horizontal=1;verticalAlign=middle;align=center;" vertex="1" parent="1">
                    <mxGeometry x="410" y="450" width="30" height="160" as="geometry"/>
                </mxCell>
                <mxCell id="97" style="edgeStyle=none;shape=connector;rounded=0;jumpStyle=none;jumpSize=2;html=1;labelBackgroundColor=default;strokeColor=default;strokeWidth=2;fontFamily=Helvetica;fontSize=18;fontColor=default;endArrow=none;endFill=0;startSize=0;endSize=1;sourcePerimeterSpacing=6;targetPerimeterSpacing=6;entryX=0.5;entryY=0;entryDx=0;entryDy=0;" edge="1" parent="1" source="99" target="100">
                    <mxGeometry relative="1" as="geometry"/>
                </mxCell>
                <mxCell id="98" style="edgeStyle=none;shape=connector;rounded=0;jumpStyle=none;jumpSize=2;html=1;labelBackgroundColor=default;strokeColor=default;strokeWidth=2;fontFamily=Helvetica;fontSize=18;fontColor=default;endArrow=none;endFill=0;startSize=0;endSize=1;sourcePerimeterSpacing=6;targetPerimeterSpacing=6;" edge="1" parent="1" source="99">
                    <mxGeometry relative="1" as="geometry">
                        <mxPoint x="495" y="420" as="targetPoint"/>
                    </mxGeometry>
                </mxCell>
                <mxCell id="99" value="联系客服" style="rounded=1;whiteSpace=wrap;html=1;fontFamily=Helvetica;fontSize=18;fontColor=default;horizontal=1;verticalAlign=middle;align=center;" vertex="1" parent="1">
                    <mxGeometry x="480" y="450" width="30" height="160" as="geometry"/>
                </mxCell>
                <mxCell id="100" value="反馈和帮助" style="rounded=1;whiteSpace=wrap;html=1;fontFamily=Helvetica;fontSize=18;fontColor=default;horizontal=1;verticalAlign=middle;align=center;" vertex="1" parent="1">
                    <mxGeometry x="480" y="680" width="30" height="160" as="geometry"/>
                </mxCell>
                <mxCell id="102" value="上传资质文件" style="rounded=1;whiteSpace=wrap;html=1;fontFamily=Helvetica;fontSize=18;fontColor=default;horizontal=1;verticalAlign=middle;align=center;" vertex="1" parent="1">
                    <mxGeometry x="410" y="680" width="30" height="160" as="geometry"/>
                </mxCell>
                <mxCell id="104" style="edgeStyle=none;shape=connector;rounded=0;jumpStyle=none;jumpSize=2;html=1;entryX=0.5;entryY=0;entryDx=0;entryDy=0;labelBackgroundColor=default;strokeColor=default;strokeWidth=2;fontFamily=Helvetica;fontSize=18;fontColor=default;endArrow=none;endFill=0;startSize=0;endSize=1;sourcePerimeterSpacing=6;targetPerimeterSpacing=6;" edge="1" parent="1" source="105" target="106">
                    <mxGeometry relative="1" as="geometry"/>
                </mxCell>
                <mxCell id="107" style="edgeStyle=none;shape=connector;rounded=0;jumpStyle=none;jumpSize=2;html=1;labelBackgroundColor=default;strokeColor=default;strokeWidth=2;fontFamily=Helvetica;fontSize=18;fontColor=default;endArrow=none;endFill=0;startSize=0;endSize=1;sourcePerimeterSpacing=6;targetPerimeterSpacing=6;" edge="1" parent="1" source="105">
                    <mxGeometry relative="1" as="geometry">
                        <mxPoint x="-240" y="420" as="targetPoint"/>
                        <Array as="points">
                            <mxPoint x="-305" y="420"/>
                        </Array>
                    </mxGeometry>
                </mxCell>
                <mxCell id="105" value="查看招聘人员" style="rounded=1;whiteSpace=wrap;html=1;fontFamily=Helvetica;fontSize=18;fontColor=default;horizontal=1;verticalAlign=middle;align=center;" vertex="1" parent="1">
                    <mxGeometry x="-320" y="450" width="30" height="160" as="geometry"/>
                </mxCell>
                <mxCell id="106" value="查看招聘信息" style="rounded=1;whiteSpace=wrap;html=1;fontFamily=Helvetica;fontSize=18;fontColor=default;horizontal=1;verticalAlign=middle;align=center;" vertex="1" parent="1">
                    <mxGeometry x="-320" y="680" width="30" height="160" as="geometry"/>
                </mxCell>
                <mxCell id="113" style="edgeStyle=none;shape=connector;rounded=0;jumpStyle=none;jumpSize=2;html=1;entryX=0.5;entryY=0;entryDx=0;entryDy=0;labelBackgroundColor=default;strokeColor=default;strokeWidth=2;fontFamily=Helvetica;fontSize=18;fontColor=default;endArrow=none;endFill=0;startSize=0;endSize=1;sourcePerimeterSpacing=6;targetPerimeterSpacing=6;" edge="1" parent="1" source="115" target="116">
                    <mxGeometry relative="1" as="geometry"/>
                </mxCell>
                <mxCell id="114" style="edgeStyle=none;shape=connector;rounded=0;jumpStyle=none;jumpSize=2;html=1;labelBackgroundColor=default;strokeColor=default;strokeWidth=2;fontFamily=Helvetica;fontSize=18;fontColor=default;endArrow=none;endFill=0;startSize=0;endSize=1;sourcePerimeterSpacing=6;targetPerimeterSpacing=6;" edge="1" parent="1" source="115">
                    <mxGeometry relative="1" as="geometry">
                        <mxPoint x="1445" y="420" as="targetPoint"/>
                    </mxGeometry>
                </mxCell>
                <mxCell id="115" value="招聘审核管理" style="rounded=1;whiteSpace=wrap;html=1;fontFamily=Helvetica;fontSize=18;fontColor=default;horizontal=1;verticalAlign=middle;align=center;" vertex="1" parent="1">
                    <mxGeometry x="1430" y="450" width="30" height="160" as="geometry"/>
                </mxCell>
                <mxCell id="116" value="通过审核" style="rounded=1;whiteSpace=wrap;html=1;fontFamily=Helvetica;fontSize=18;fontColor=default;horizontal=1;verticalAlign=middle;align=center;" vertex="1" parent="1">
                    <mxGeometry x="1430" y="680" width="30" height="160" as="geometry"/>
                </mxCell>
                <mxCell id="117" style="edgeStyle=none;shape=connector;rounded=0;jumpStyle=none;jumpSize=2;html=1;labelBackgroundColor=default;strokeColor=default;strokeWidth=2;fontFamily=Helvetica;fontSize=18;fontColor=default;endArrow=none;endFill=0;startSize=0;endSize=1;sourcePerimeterSpacing=6;targetPerimeterSpacing=6;" edge="1" parent="1" source="119">
                    <mxGeometry relative="1" as="geometry">
                        <mxPoint x="1390" y="680" as="targetPoint"/>
                    </mxGeometry>
                </mxCell>
                <mxCell id="118" style="edgeStyle=none;shape=connector;rounded=0;jumpStyle=none;jumpSize=2;html=1;labelBackgroundColor=default;strokeColor=default;strokeWidth=2;fontFamily=Helvetica;fontSize=18;fontColor=default;endArrow=none;endFill=0;startSize=0;endSize=1;sourcePerimeterSpacing=6;targetPerimeterSpacing=6;" edge="1" parent="1" source="119">
                    <mxGeometry relative="1" as="geometry">
                        <mxPoint x="1390" y="420" as="targetPoint"/>
                    </mxGeometry>
                </mxCell>
                <mxCell id="119" value="招聘管理" style="rounded=1;whiteSpace=wrap;html=1;fontFamily=Helvetica;fontSize=18;fontColor=default;horizontal=1;verticalAlign=middle;align=center;" vertex="1" parent="1">
                    <mxGeometry x="1375" y="450" width="25" height="160" as="geometry"/>
                </mxCell>
                <mxCell id="120" value="查看招聘状态" style="rounded=1;whiteSpace=wrap;html=1;fontFamily=Helvetica;fontSize=18;fontColor=default;horizontal=1;verticalAlign=middle;align=center;" vertex="1" parent="1">
                    <mxGeometry x="1375" y="680" width="30" height="160" as="geometry"/>
                </mxCell>
                <mxCell id="121" style="edgeStyle=none;shape=connector;rounded=0;jumpStyle=none;jumpSize=2;html=1;entryX=0.5;entryY=0;entryDx=0;entryDy=0;labelBackgroundColor=default;strokeColor=default;strokeWidth=2;fontFamily=Helvetica;fontSize=18;fontColor=default;endArrow=none;endFill=0;startSize=0;endSize=1;sourcePerimeterSpacing=6;targetPerimeterSpacing=6;" edge="1" parent="1" source="123" target="124">
                    <mxGeometry relative="1" as="geometry"/>
                </mxCell>
                <mxCell id="122" style="edgeStyle=none;shape=connector;rounded=0;jumpStyle=none;jumpSize=2;html=1;labelBackgroundColor=default;strokeColor=default;strokeWidth=2;fontFamily=Helvetica;fontSize=18;fontColor=default;endArrow=none;endFill=0;startSize=0;endSize=1;sourcePerimeterSpacing=6;targetPerimeterSpacing=6;" edge="1" parent="1" source="123">
                    <mxGeometry relative="1" as="geometry">
                        <mxPoint x="1325" y="420" as="targetPoint"/>
                    </mxGeometry>
                </mxCell>
                <mxCell id="123" value="聊天管理" style="rounded=1;whiteSpace=wrap;html=1;fontFamily=Helvetica;fontSize=18;fontColor=default;horizontal=1;verticalAlign=middle;align=center;" vertex="1" parent="1">
                    <mxGeometry x="1310" y="450" width="30" height="160" as="geometry"/>
                </mxCell>
                <mxCell id="124" value="实时聊天" style="rounded=1;whiteSpace=wrap;html=1;fontFamily=Helvetica;fontSize=18;fontColor=default;horizontal=1;verticalAlign=middle;align=center;" vertex="1" parent="1">
                    <mxGeometry x="1310" y="680" width="30" height="160" as="geometry"/>
                </mxCell>
                <mxCell id="125" style="edgeStyle=none;shape=connector;rounded=0;jumpStyle=none;jumpSize=2;html=1;entryX=0.5;entryY=0;entryDx=0;entryDy=0;labelBackgroundColor=default;strokeColor=default;strokeWidth=2;fontFamily=Helvetica;fontSize=18;fontColor=default;endArrow=none;endFill=0;startSize=0;endSize=1;sourcePerimeterSpacing=6;targetPerimeterSpacing=6;" edge="1" parent="1" source="127" target="128">
                    <mxGeometry relative="1" as="geometry"/>
                </mxCell>
                <mxCell id="126" style="edgeStyle=none;shape=connector;rounded=0;jumpStyle=none;jumpSize=2;html=1;labelBackgroundColor=default;strokeColor=default;strokeWidth=2;fontFamily=Helvetica;fontSize=18;fontColor=default;endArrow=none;endFill=0;startSize=0;endSize=1;sourcePerimeterSpacing=6;targetPerimeterSpacing=6;" edge="1" parent="1" source="127">
                    <mxGeometry relative="1" as="geometry">
                        <mxPoint x="1265" y="420" as="targetPoint"/>
                    </mxGeometry>
                </mxCell>
                <mxCell id="127" value="聊天记录" style="rounded=1;whiteSpace=wrap;html=1;fontFamily=Helvetica;fontSize=18;fontColor=default;horizontal=1;verticalAlign=middle;align=center;" vertex="1" parent="1">
                    <mxGeometry x="1250" y="450" width="30" height="160" as="geometry"/>
                </mxCell>
                <mxCell id="128" value="未读通知" style="rounded=1;whiteSpace=wrap;html=1;fontFamily=Helvetica;fontSize=18;fontColor=default;horizontal=1;verticalAlign=middle;align=center;" vertex="1" parent="1">
                    <mxGeometry x="1250" y="680" width="30" height="160" as="geometry"/>
                </mxCell>
                <mxCell id="129" style="edgeStyle=none;shape=connector;rounded=0;jumpStyle=none;jumpSize=2;html=1;labelBackgroundColor=default;strokeColor=default;strokeWidth=2;fontFamily=Helvetica;fontSize=18;fontColor=default;endArrow=none;endFill=0;startSize=0;endSize=1;sourcePerimeterSpacing=6;targetPerimeterSpacing=6;" edge="1" parent="1" source="131" target="132">
                    <mxGeometry relative="1" as="geometry"/>
                </mxCell>
                <mxCell id="130" style="edgeStyle=none;shape=connector;rounded=0;jumpStyle=none;jumpSize=2;html=1;labelBackgroundColor=default;strokeColor=default;strokeWidth=2;fontFamily=Helvetica;fontSize=18;fontColor=default;endArrow=none;endFill=0;startSize=0;endSize=1;sourcePerimeterSpacing=6;targetPerimeterSpacing=6;" edge="1" parent="1" source="131">
                    <mxGeometry relative="1" as="geometry">
                        <mxPoint x="1195" y="420" as="targetPoint"/>
                    </mxGeometry>
                </mxCell>
                <mxCell id="131" value="用户类别管理" style="rounded=1;whiteSpace=wrap;html=1;fontFamily=Helvetica;fontSize=18;fontColor=default;horizontal=1;verticalAlign=middle;align=center;" vertex="1" parent="1">
                    <mxGeometry x="1180" y="450" width="30" height="160" as="geometry"/>
                </mxCell>
                <mxCell id="132" value="查看用户状态" style="rounded=1;whiteSpace=wrap;html=1;fontFamily=Helvetica;fontSize=18;fontColor=default;horizontal=1;verticalAlign=middle;align=center;" vertex="1" parent="1">
                    <mxGeometry x="1180" y="680" width="30" height="160" as="geometry"/>
                </mxCell>
                <mxCell id="133" style="edgeStyle=none;shape=connector;rounded=0;jumpStyle=none;jumpSize=2;html=1;entryX=0.5;entryY=0;entryDx=0;entryDy=0;labelBackgroundColor=default;strokeColor=default;strokeWidth=2;fontFamily=Helvetica;fontSize=18;fontColor=default;endArrow=none;endFill=0;startSize=0;endSize=1;sourcePerimeterSpacing=6;targetPerimeterSpacing=6;" edge="1" parent="1" source="135" target="140">
                    <mxGeometry relative="1" as="geometry"/>
                </mxCell>
                <mxCell id="144" style="edgeStyle=none;shape=connector;rounded=0;jumpStyle=none;jumpSize=2;html=1;entryX=0.5;entryY=0;entryDx=0;entryDy=0;labelBackgroundColor=default;strokeColor=default;strokeWidth=2;fontFamily=Helvetica;fontSize=18;fontColor=default;endArrow=none;endFill=0;startSize=0;endSize=1;sourcePerimeterSpacing=6;targetPerimeterSpacing=6;exitX=0.5;exitY=0;exitDx=0;exitDy=0;" edge="1" parent="1" source="135" target="115">
                    <mxGeometry relative="1" as="geometry">
                        <Array as="points">
                            <mxPoint x="1055" y="420"/>
                            <mxPoint x="1445" y="420"/>
                        </Array>
                    </mxGeometry>
                </mxCell>
                <mxCell id="135" value="用户管理" style="rounded=1;whiteSpace=wrap;html=1;fontFamily=Helvetica;fontSize=18;fontColor=default;horizontal=1;verticalAlign=middle;align=center;" vertex="1" parent="1">
                    <mxGeometry x="1040" y="450" width="30" height="160" as="geometry"/>
                </mxCell>
                <mxCell id="136" style="edgeStyle=none;shape=connector;rounded=0;jumpStyle=none;jumpSize=2;html=1;labelBackgroundColor=default;strokeColor=default;strokeWidth=2;fontFamily=Helvetica;fontSize=18;fontColor=default;endArrow=none;endFill=0;startSize=0;endSize=1;sourcePerimeterSpacing=6;targetPerimeterSpacing=6;entryX=0.5;entryY=0;entryDx=0;entryDy=0;" edge="1" parent="1" source="138" target="139">
                    <mxGeometry relative="1" as="geometry"/>
                </mxCell>
                <mxCell id="137" style="edgeStyle=none;shape=connector;rounded=0;jumpStyle=none;jumpSize=2;html=1;labelBackgroundColor=default;strokeColor=default;strokeWidth=2;fontFamily=Helvetica;fontSize=18;fontColor=default;endArrow=none;endFill=0;startSize=0;endSize=1;sourcePerimeterSpacing=6;targetPerimeterSpacing=6;" edge="1" parent="1" source="138">
                    <mxGeometry relative="1" as="geometry">
                        <mxPoint x="1125" y="420" as="targetPoint"/>
                    </mxGeometry>
                </mxCell>
                <mxCell id="138" value="招聘权限审批" style="rounded=1;whiteSpace=wrap;html=1;fontFamily=Helvetica;fontSize=18;fontColor=default;horizontal=1;verticalAlign=middle;align=center;" vertex="1" parent="1">
                    <mxGeometry x="1110" y="450" width="30" height="160" as="geometry"/>
                </mxCell>
                <mxCell id="139" value="下载资产文件" style="rounded=1;whiteSpace=wrap;html=1;fontFamily=Helvetica;fontSize=18;fontColor=default;horizontal=1;verticalAlign=middle;align=center;" vertex="1" parent="1">
                    <mxGeometry x="1110" y="680" width="30" height="160" as="geometry"/>
                </mxCell>
                <mxCell id="140" value="查看用户" style="rounded=1;whiteSpace=wrap;html=1;fontFamily=Helvetica;fontSize=18;fontColor=default;horizontal=1;verticalAlign=middle;align=center;" vertex="1" parent="1">
                    <mxGeometry x="1040" y="680" width="30" height="160" as="geometry"/>
                </mxCell>
            </root>
        </mxGraphModel>
    </diagram>
</mxfile>